<?xml version="1.0" encoding="UTF-8" standalone="no"?>
<!-- Created with Inkscape (http://www.inkscape.org/) -->

<svg
   width="64"
   height="64"
   viewBox="0 0 64 64"
   version="1.1"
   id="svg5"
   xml:space="preserve"
   inkscape:version="1.2.1 (9c6d41e410, 2022-07-14)"
   sodipodi:docname="toxic.svg"
   xmlns:inkscape="http://www.inkscape.org/namespaces/inkscape"
   xmlns:sodipodi="http://sodipodi.sourceforge.net/DTD/sodipodi-0.dtd"
   xmlns="http://www.w3.org/2000/svg"
   xmlns:svg="http://www.w3.org/2000/svg"><sodipodi:namedview
     id="namedview7"
     pagecolor="#ffffff"
     bordercolor="#666666"
     borderopacity="1.0"
     inkscape:showpageshadow="2"
     inkscape:pageopacity="0.0"
     inkscape:pagecheckerboard="true"
     inkscape:deskcolor="#d1d1d1"
     inkscape:document-units="mm"
     showgrid="false"
     showborder="true"
     inkscape:zoom="12.453179"
     inkscape:cx="31.999862"
     inkscape:cy="31.999862"
     inkscape:window-width="1410"
     inkscape:window-height="1012"
     inkscape:window-x="486"
     inkscape:window-y="0"
     inkscape:window-maximized="0"
     inkscape:current-layer="layer1" /><defs
     id="defs2" /><g
     inkscape:label="Vrstva 1"
     inkscape:groupmode="layer"
     id="layer1"><path
       id="path179"
       style="fill:#040608;stroke:none;stroke-width:0.0795636"
       d="M 32.453125 0 C 32.085339 -0.0046605863 31.720994 0.014714601 31.361328 0.0625 C 28.513771 0.44081494 25.942301 0.84071532 23.322266 2.1171875 C 20.422424 3.529986 17.445124 6.0210933 15.986328 8.9375 C 14.633773 11.641359 14.297769 15.020009 14.582031 18.005859 C 14.755596 19.829301 15.073405 21.63782 15.796875 23.333984 C 16.226294 24.340643 16.941745 25.234094 17.273438 26.277344 C 17.634813 27.413822 17.372569 28.7735 17.261719 29.9375 C 17.201709 30.567824 17.111337 31.282991 17.482422 31.845703 C 18.351206 33.162908 20.269011 33.527328 21.732422 33.59375 C 22.566985 33.63161 23.777764 33.559023 24.429688 34.169922 C 25.77667 35.432165 23.916693 37.463483 24.558594 38.925781 C 24.931986 39.776369 26.173528 40.139935 26.984375 40.410156 C 29.435144 41.226697 32.079086 41.315184 34.623047 40.972656 C 36.10977 40.772438 39.26271 40.279895 39.533203 38.449219 C 39.724605 37.154126 38.410782 35.32389 39.486328 34.240234 C 40.11955 33.602192 41.194009 33.647118 42.025391 33.589844 C 43.560819 33.484203 45.576397 33.305701 46.482422 31.845703 C 47.466357 30.260189 46.157277 28.207461 46.65625 26.517578 C 47.041182 25.213894 47.917227 24.119105 48.40625 22.857422 C 49.26532 20.640863 49.605568 17.984689 49.501953 15.619141 C 49.392202 13.115181 48.945948 10.584214 47.685547 8.3808594 C 45.270986 4.1595753 40.401077 1.3737205 35.738281 0.44140625 C 34.682385 0.23028202 33.556483 0.013981759 32.453125 0 z M 38.109375 20.689453 C 39.814789 20.671797 41.938059 21.244654 42.9375 22.539062 C 44.603763 24.697231 43.548794 27.672084 40.830078 28.005859 C 38.856953 28.24808 36.141062 27.657898 34.925781 25.960938 C 34.04164 24.726379 34.355672 22.366185 35.501953 21.373047 C 36.04541 20.902133 36.722138 20.813558 37.408203 20.732422 C 37.630303 20.706152 37.865744 20.691975 38.109375 20.689453 z M 26.746094 20.712891 C 29.061399 20.806037 30.143142 23.641439 29.220703 25.642578 C 28.474474 27.261424 26.382252 27.860827 24.755859 28.015625 C 23.614277 28.124285 22.100481 28.033407 21.181641 27.269531 C 19.792795 26.114756 20.136448 23.61738 21.210938 22.386719 C 22.560864 20.840653 24.430858 20.946002 26.267578 20.732422 C 26.432683 20.713211 26.59174 20.706681 26.746094 20.712891 z M 32.011719 28.125 C 32.391904 28.123553 32.646895 28.499171 32.802734 28.824219 C 33.23605 29.727708 33.721127 30.644438 34.009766 31.607422 C 34.144982 32.05869 34.203428 32.608844 33.666016 32.822266 C 33.238667 32.992023 32.741608 32.724656 32.316406 32.666016 C 31.622544 32.570236 30.370525 33.309142 29.931641 32.478516 C 29.749882 32.134556 29.945475 31.697747 30.072266 31.369141 C 30.380243 30.571128 30.917786 28.411541 31.841797 28.150391 C 31.901353 28.133568 31.957406 28.125207 32.011719 28.125 z M 15.205078 34.564453 C 13.515899 34.396131 11.916015 35.710976 11.791016 37.414062 C 11.738606 38.128072 12.1489 39.160036 11.828125 39.800781 C 11.464353 40.527358 10.528397 40.788978 9.9667969 41.335938 C 8.6965125 42.573199 8.6603203 44.757031 9.9609375 45.990234 C 12.362974 48.26773 14.904298 45.67812 17.513672 45.853516 C 20.767969 46.072345 23.680486 48.305091 26.746094 49.1875 L 26.746094 49.345703 C 24.893295 50.116742 23.040634 50.881314 21.173828 51.621094 C 19.956879 52.103384 18.603592 52.711094 17.275391 52.746094 C 16.350903 52.770434 15.42417 52.285174 14.568359 52 C 13.046935 51.493051 11.232082 51.412144 9.9667969 52.564453 C 8.5790451 53.828443 8.7765645 55.958738 10.037109 57.21875 C 10.562852 57.744233 11.455097 58.033967 11.777344 58.734375 C 12.126544 59.493325 11.708685 60.536982 11.796875 61.357422 C 11.991045 63.163755 13.908524 64.250764 15.603516 63.945312 C 18.496752 63.423883 18.276096 60.34304 19.779297 58.494141 C 20.615769 57.465209 21.939457 56.7924 23.083984 56.164062 C 24.945141 55.142372 26.834862 54.173994 28.734375 53.224609 C 29.616689 52.783685 31.03651 51.717634 32.042969 51.736328 C 32.381505 51.742528 32.734015 52.008116 33.03125 52.148438 C 33.777799 52.500905 34.520859 52.855277 35.259766 53.224609 C 37.212282 54.200401 39.172552 55.165172 41.070312 56.244141 C 42.091574 56.82475 43.288329 57.429502 44.058594 58.335938 C 45.625059 60.179103 45.493567 63.424117 48.390625 63.945312 C 50.359294 64.299446 52.132227 62.860846 52.275391 60.880859 C 52.326971 60.167568 51.902585 59.336411 52.248047 58.654297 C 52.593188 57.972747 53.514863 57.742719 54.039062 57.21875 C 55.330098 55.928269 55.287781 53.769476 53.960938 52.535156 C 51.586565 50.326392 49.261559 52.820572 46.720703 52.757812 C 45.726025 52.733214 44.706724 52.308438 43.775391 51.998047 C 41.544743 51.254686 39.415711 50.246965 37.25 49.345703 C 38.661523 48.349781 40.58267 47.812406 42.183594 47.183594 C 43.619231 46.619685 45.221219 45.821175 46.798828 45.851562 C 49.251905 45.898882 51.790646 48.194146 54.027344 45.990234 C 55.222806 44.812315 55.362786 42.724528 54.185547 41.478516 C 53.626651 40.887087 52.635323 40.615791 52.246094 39.880859 C 51.840709 39.115389 52.31196 38.019685 52.1875 37.175781 C 51.890027 35.158407 49.646118 34.124004 47.833984 34.765625 C 45.319868 35.655827 45.530416 38.532537 44 40.279297 C 43.271759 41.110474 42.328758 41.597206 41.388672 42.142578 C 39.641316 43.156315 37.814257 44.015664 36.056641 45.005859 C 34.963837 45.621629 33.342462 46.72961 32.076172 46.847656 C 31.133856 46.935476 29.639702 45.813495 28.814453 45.390625 C 26.632601 44.272685 24.366514 43.282746 22.289062 41.974609 C 21.505269 41.481025 20.544216 41.007341 19.955078 40.277344 C 18.317546 38.248357 18.474813 34.890195 15.205078 34.564453 z " /></g></svg>
